<?xml version="1.0" standalone="no"?>
<!DOCTYPE svg PUBLIC "-//W3C//DTD SVG 20010904//EN"
 "http://www.w3.org/TR/2001/REC-SVG-20010904/DTD/svg10.dtd">
<svg version="1.0" xmlns="http://www.w3.org/2000/svg"
 width="300pt" height="300pt" viewBox="0 0 744.000000 1052.000000"
 preserveAspectRatio="xMidYMid meet">

<g transform="translate(0.000000,1052.000000) scale(0.100000,-0.100000)"
fill="lightgreen" stroke="none">
<path d="M3697 7790 c-4 -14 -54 -457 -112 -984 -57 -527 -107 -961 -110 -964
-3 -3 -13 2 -22 10 -31 26 -1537 1194 -1552 1203 -8 4 268 -344 613 -774 345
-430 626 -784 624 -786 -2 -2 -447 -60 -988 -128 -542 -68 -974 -127 -960
-130 14 -3 457 -53 984 -111 527 -58 961 -108 964 -110 2 -3 -9 -22 -25 -43
-319 -409 -1181 -1522 -1188 -1532 -4 -8 344 268 774 613 431 345 784 626 786
624 2 -2 59 -445 127 -986 67 -540 126 -974 130 -965 4 10 54 452 112 982 58
530 108 966 111 969 2 3 10 0 17 -5 63 -51 1547 -1201 1557 -1208 8 -4 -268
344 -613 774 -345 430 -626 784 -624 786 1 2 445 58 986 126 541 68 975 127
965 131 -10 4 -452 54 -982 112 -531 59 -966 108 -969 111 -2 2 9 21 25 42
407 523 1181 1521 1187 1531 5 8 -344 -268 -774 -613 -430 -345 -783 -625
-785 -623 -2 1 -59 446 -128 988 -68 542 -127 974 -130 960z"/>
</g>
</svg>
